<svg width="54" height="54" viewBox="0 0 54 54" fill="none" xmlns="http://www.w3.org/2000/svg">
<g clip-path="url(#clip0_44_225)">
<path d="M3.19684 20.7542C3.83096 17.6951 5.03796 14.7005 6.85081 11.927C14.0003 0.995792 28.0614 -2.69011 39.5109 2.8658L35.9566 8.4498C32.2465 6.8292 28.2225 6.47868 24.4184 7.27188C19.6231 8.28054 15.237 11.0931 12.3435 15.5173C11.3832 16.9867 10.6517 18.5361 10.1398 20.1245L3.19826 20.7542H3.19684Z" fill="#535353"/>
<path d="M10.1385 20.1242C9.10849 23.3214 8.96446 26.6818 9.63275 29.886C10.6404 34.6806 13.4556 39.0678 17.8785 41.9625C22.3042 44.8532 27.4505 45.6725 32.2474 44.6707C37.0437 43.6631 41.4292 40.8485 44.323 36.4255C47.214 32.0003 48.0325 26.8539 47.0318 22.0562C46.0245 17.2604 43.2099 12.8744 38.787 9.98072C37.8711 9.38179 36.9239 8.87197 35.9555 8.44923L39.5098 2.86523C40.4869 3.33904 41.4449 3.87978 42.3779 4.4899C54.2406 12.2485 57.5689 28.1499 49.8144 40.0144C42.0548 51.8775 26.1544 55.207 14.2899 47.4525C5.1986 41.5079 1.11964 30.7815 3.19798 20.7532L10.1407 20.1258L10.1385 20.1242Z" fill="#535353"/>
<path d="M25.2291 10.9497C21.3858 11.7581 17.8711 14.0135 15.5514 17.5591C13.2331 21.1057 12.5782 25.2307 13.379 29.0757C14.1871 32.9188 16.4425 36.4335 19.9884 38.7528C23.5356 41.0702 27.6596 41.7266 31.5046 40.9247C35.3489 40.1164 38.864 37.8618 41.1827 34.3162C43.5005 30.7687 44.156 26.6458 43.3546 22.8006C42.5471 18.9575 40.2917 15.4399 36.747 13.1216C33.1978 10.8032 29.0745 10.1479 25.2278 10.9499L25.2291 10.9497Z" stroke="#535353" stroke-width="2.25728"/>
<path d="M29.8853 10.5585L32.9478 20.3824L43.4038 20.3282C43.4038 20.3282 41.8534 18.6615 41.0982 18.2629C41.0982 18.2629 42.5365 16.6842 45.1261 13.343C47.0193 10.9029 49.3194 6.54404 44.9369 3.30569C43.0649 1.92251 40.8293 1.62 38.4804 1.28432C37.0911 1.08597 35.3543 0.548078 33.9616 0.822517C34.8695 1.39845 35.9058 1.90624 36.4755 2.76475C37.0014 3.55511 37.1651 4.37334 36.8201 5.32584C36.2903 6.78531 35.6481 7.62857 35.0296 8.49705C34.8683 8.72144 32.6958 11.8585 32.4559 11.7482C32.4519 11.7478 29.8845 10.5589 29.8845 10.5589L29.8853 10.5585Z" fill="#535353"/>
<path d="M30.988 0.440504C30.988 0.440504 39.2444 0.939336 38.7246 5.42049C38.5663 6.78678 37.6313 8.24727 36.5175 9.7336C34.6074 12.2807 33.5556 13.7981 33.5556 13.7981L32.1328 12.8668L34.124 18.8314L40.5138 18.9996L39.2757 18.0972C39.2757 18.0972 46.7063 9.88984 46.1188 6.36526C45.6161 3.35538 44.2614 2.50805 44.2614 2.50805C44.2614 2.50805 39.3605 -1.25923 30.987 0.440504H30.988Z" fill="#ED7A03"/>
<path d="M39.5833 36.5833L29.7824 33.4473L24.2458 41.3296C24.2458 41.3296 26.0759 41.7238 26.8366 41.3372C26.8366 41.3372 27.3019 43.4194 28.5494 47.4591C29.4599 50.411 31.7065 54.797 36.8753 53.0681C39.082 52.3309 40.6139 50.6753 42.2384 48.9454C43.198 47.9217 44.6363 46.81 45.2112 45.5118C44.2176 45.9244 43.2069 46.4794 42.1767 46.4533C41.2283 46.4303 40.465 46.0947 39.884 45.2644C38.9925 43.9933 38.6715 42.9827 38.3158 41.9781C38.2237 41.7177 36.9042 38.1357 37.132 38.0037C37.1361 38.0017 39.5855 36.5817 39.5855 36.5817L39.5833 36.5833Z" fill="#535353" stroke="#535353" stroke-width="0.0240786"/>
<path d="M47.2346 43.2999C47.2346 43.2999 42.0839 49.7723 38.7137 46.7724C37.6862 45.858 37.0276 44.2534 36.4517 42.4884C35.4622 39.4604 34.825 37.7287 34.825 37.7287L36.4047 37.0985L30.3778 35.3027L26.5695 40.4396L28.0192 39.9436C28.0192 39.9436 30.4696 50.7401 33.6923 52.2836C36.4462 53.6027 37.9173 52.9797 37.9173 52.9797C37.9173 52.9797 44.0978 50.8497 47.2328 43.3022L47.2346 43.2999Z" fill="#ED7A03"/>
<path d="M14.8139 33.4855L21.1417 25.3703L15.1392 16.8086C15.1392 16.8086 14.654 19.0342 14.7558 19.8815C14.7558 19.8815 12.6398 19.5992 8.41843 19.3738C5.33389 19.2094 0.441995 19.8034 0.27782 25.2503C0.207633 27.5762 1.23378 29.5854 2.29593 31.7068C2.92456 32.9616 3.4714 34.6956 4.49104 35.6833C4.44791 34.6085 4.2756 33.4674 4.6544 32.51C5.00493 31.6285 5.58432 31.0276 6.56286 30.769C8.06384 30.3725 9.12396 30.4195 10.1894 30.4325C10.4652 30.4368 14.2819 30.4345 14.3269 30.6951L14.8141 33.4843L14.8139 33.4855Z" fill="#535353"/>
<path d="M5.87058 38.3451C5.87058 38.3451 1.57517 31.2758 5.55342 29.1493C6.76632 28.5003 8.50023 28.4373 10.3556 28.5052C13.5374 28.6234 15.3832 28.6234 15.3832 28.6234L15.4298 30.3223L19.1964 25.2872L15.6932 19.9404L15.6582 21.4719C15.6582 21.4719 4.67843 20.0436 2.11734 22.5347C-0.0706489 24.6633 0.00543789 26.2588 0.00543789 26.2588C0.00543789 26.2588 -0.403476 33.6437 5.87058 38.3451Z" fill="#ED7A03"/>
</g>
<defs>
<clipPath id="clip0_44_225">
<rect width="54" height="53.4605" fill="white"/>
</clipPath>
</defs>
</svg>
