<svg width="58" height="58" viewBox="0 0 58 58" fill="none" xmlns="http://www.w3.org/2000/svg">
<path d="M50.4667 3H7.13338C5.98411 3 4.88191 3.45655 4.06925 4.2692C3.2566 5.08186 2.80005 6.18406 2.80005 7.33333V50.6667C2.80005 51.8159 3.2566 52.9181 4.06925 53.7308C4.88191 54.5435 5.98411 55 7.13338 55H50.4667C51.616 55 52.7182 54.5435 53.5308 53.7308C54.3435 52.9181 54.8 51.8159 54.8 50.6667V7.33333C54.8 6.18406 54.3435 5.08186 53.5308 4.2692C52.7182 3.45655 51.616 3 50.4667 3Z" stroke="white" stroke-width="5.2"/>
<path d="M15.8 26.1105V18.8882H23.0222V14.5549L31.6889 11.666V18.8882H38.9111V26.1105H31.6889V36.2216C31.6889 36.2216 31.6889 38.3882 34.5778 39.1105C37.4667 39.8327 41.8 37.666 41.8 37.666L38.9111 46.3327H31.6889C26.6333 46.3327 23.0222 41.2771 23.0222 37.666V26.1105H15.8Z" fill="white"/>
</svg>
