<svg width="62" height="48" viewBox="0 0 62 48" fill="none" xmlns="http://www.w3.org/2000/svg">
<path d="M29.0143 47.044L4.57446 23.0961C-9.06342 9.73271 10.9084 -8.36149 23.8203 4.2827L28.5563 9.04289C28.8688 9.48751 29.287 9.85105 29.7747 10.1022C30.2625 10.3533 30.8052 10.4845 31.3562 10.4845C31.9072 10.4845 32.45 10.3533 32.9377 10.1022C33.4255 9.85105 33.8437 9.48751 34.1562 9.04289L39.7102 3.67322C39.9577 3.34807 40.2708 3.07631 40.6301 2.87488C40.9894 2.67345 41.3872 2.54665 41.7987 2.50239C42.2102 2.45812 42.6266 2.49733 43.0219 2.61758C43.4173 2.73783 43.7831 2.93654 44.0967 3.20134C44.4103 3.46614 44.6649 3.79136 44.8446 4.15675C45.0244 4.52214 45.1254 4.91988 45.1415 5.3252C45.1576 5.73052 45.0884 6.13474 44.9381 6.51271C44.7878 6.89067 44.5598 7.23428 44.2681 7.52213L31.0482 20.5739C28.6343 22.9393 31.8202 25.7633 34.1062 23.5253L37.5282 20.2604C37.7836 19.9335 38.1065 19.6631 38.4758 19.4668C38.8451 19.2704 39.2525 19.1526 39.6714 19.121C40.0903 19.0894 40.5112 19.1448 40.9068 19.2834C41.3024 19.422 41.6638 19.6408 41.9672 19.9256C42.2707 20.2103 42.5094 20.5545 42.6679 20.9358C42.8264 21.3171 42.901 21.7268 42.887 22.1383C42.8729 22.5497 42.7704 22.9536 42.5863 23.3237C42.4021 23.6937 42.1404 24.0215 41.8182 24.2857L31.5142 34.4528C28.9403 36.9749 31.8182 40.0733 34.4442 37.4982L49.0061 23.5253C52.4941 20.1075 56.298 24.6032 53.3221 27.5192L33.6842 47.0519C33.0643 47.659 32.2237 48 31.3472 48C30.4708 48 29.6302 47.659 29.0103 47.0519L29.0143 47.044ZM53.7561 19.0375C53.7561 18.4325 53.9392 17.841 54.2822 17.3379C54.6253 16.8349 55.1128 16.4428 55.6833 16.2112C56.2538 15.9797 56.8815 15.9191 57.4871 16.0372C58.0927 16.1552 58.649 16.4465 59.0856 16.8744C59.5222 17.3022 59.8195 17.8473 59.94 18.4407C60.0605 19.0341 59.9987 19.6492 59.7624 20.2082C59.5261 20.7672 59.1259 21.245 58.6125 21.5811C58.0991 21.9172 57.4955 22.0967 56.878 22.0967C56.05 22.0967 55.2559 21.7744 54.6705 21.2007C54.085 20.627 53.7561 19.8488 53.7561 19.0375ZM44.2941 13.7992C47.4741 10.6832 50.8421 7.33204 54.2201 4.02009C57.598 0.708149 61.706 4.72756 58.502 7.86705C55.298 11.0065 48.3561 17.7049 48.3561 17.7049C48.0488 18.0305 47.6782 18.2927 47.266 18.4761C46.8539 18.6595 46.4086 18.7604 45.9561 18.773C45.3617 18.7783 44.7809 18.5981 44.2979 18.2585C43.8149 17.9188 43.4548 17.4373 43.2697 16.8838C43.0845 16.3302 43.084 15.7333 43.2682 15.1794C43.4524 14.6255 43.8117 14.1435 44.2941 13.8031V13.7992Z" fill="#535353"/>
<circle cx="56.5" cy="19" r="3.5" fill="#ED7A03"/>
<rect x="56.8995" y="1" width="6.23311" height="21.1692" rx="2.90849" transform="rotate(45 56.8995 1)" fill="#ED7A03"/>
</svg>
