<svg width="53" height="52" viewBox="0 0 53 52" fill="none" xmlns="http://www.w3.org/2000/svg">
<path d="M40.484 8.996C39.8669 8.996 39.2637 9.17898 38.7506 9.52182C38.2375 9.86465 37.8376 10.3519 37.6015 10.922C37.3653 11.4921 37.3035 12.1195 37.4239 12.7247C37.5443 13.3299 37.8415 13.8858 38.2778 14.3222C38.7141 14.7585 39.2701 15.0557 39.8753 15.176C40.4805 15.2964 41.1078 15.2346 41.6779 14.9985C42.2481 14.7624 42.7353 14.3625 43.0782 13.8494C43.421 13.3363 43.604 12.7331 43.604 12.116C43.604 11.2885 43.2753 10.4949 42.6901 9.90983C42.105 9.32471 41.3115 8.996 40.484 8.996ZM52.444 15.288C52.3934 13.1308 51.9894 10.9964 51.248 8.97C50.5869 7.23614 49.5579 5.66612 48.232 4.368C46.9445 3.03531 45.3708 2.01286 43.63 1.378C41.6089 0.614018 39.4722 0.200746 37.312 0.156C34.556 -1.45286e-07 33.672 0 26.6 0C19.528 0 18.644 -1.45286e-07 15.888 0.156C13.7278 0.200746 11.5911 0.614018 9.56997 1.378C7.83233 2.01929 6.26 3.04086 4.96798 4.368C3.63528 5.65546 2.61283 7.22914 1.97798 8.97C1.21399 10.9911 0.800722 13.1278 0.755975 15.288C0.599975 18.044 0.599976 18.928 0.599976 26C0.599976 33.072 0.599975 33.956 0.755975 36.712C0.800722 38.8722 1.21399 41.0089 1.97798 43.03C2.61283 44.7709 3.63528 46.3445 4.96798 47.632C6.26 48.9591 7.83233 49.9807 9.56997 50.622C11.5911 51.386 13.7278 51.7993 15.888 51.844C18.644 52 19.528 52 26.6 52C33.672 52 34.556 52 37.312 51.844C39.4722 51.7993 41.6089 51.386 43.63 50.622C45.3708 49.9871 46.9445 48.9647 48.232 47.632C49.5638 46.3387 50.5936 44.7673 51.248 43.03C51.9894 41.0035 52.3934 38.8692 52.444 36.712C52.444 33.956 52.6 33.072 52.6 26C52.6 18.928 52.6 18.044 52.444 15.288ZM47.764 36.4C47.745 38.0504 47.4461 39.6856 46.88 41.236C46.4648 42.3675 45.7981 43.3899 44.93 44.226C44.0867 45.0853 43.0664 45.7507 41.94 46.176C40.3896 46.7422 38.7544 47.0411 37.104 47.06C34.504 47.19 33.542 47.216 26.704 47.216C19.866 47.216 18.904 47.216 16.304 47.06C14.5903 47.0921 12.8839 46.8282 11.26 46.28C10.183 45.833 9.2095 45.1692 8.39998 44.33C7.53701 43.4947 6.87857 42.4715 6.47598 41.34C5.8412 39.7674 5.48913 38.095 5.43598 36.4C5.43598 33.8 5.27998 32.838 5.27998 26C5.27998 19.162 5.27997 18.2 5.43598 15.6C5.44763 13.9127 5.75565 12.2407 6.34598 10.66C6.8037 9.56257 7.50626 8.58431 8.39998 7.8C9.18989 6.90604 10.1661 6.19605 11.26 5.72C12.8448 5.14811 14.5152 4.84921 16.2 4.836C18.8 4.836 19.762 4.68 26.6 4.68C33.438 4.68 34.4 4.68 37 4.836C38.6504 4.85493 40.2856 5.15384 41.836 5.72C43.0175 6.1585 44.0779 6.8714 44.93 7.8C45.782 8.59866 46.4478 9.5751 46.88 10.66C47.4578 12.2432 47.7569 13.9146 47.764 15.6C47.894 18.2 47.92 19.162 47.92 26C47.92 32.838 47.894 33.8 47.764 36.4ZM26.6 12.662C23.9631 12.6671 21.3869 13.4538 19.1969 14.9225C17.0069 16.3912 15.3014 18.4761 14.2958 20.9138C13.2903 23.3514 13.0299 26.0324 13.5474 28.618C14.065 31.2036 15.3374 33.5778 17.2038 35.4405C19.0702 37.3033 21.4468 38.571 24.0334 39.0836C26.62 39.5961 29.3005 39.3305 31.7362 38.3202C34.1719 37.3099 36.2535 35.6003 37.7179 33.4075C39.1824 31.2146 39.964 28.6369 39.964 26C39.9674 24.2453 39.6239 22.5072 38.9532 20.8857C38.2825 19.2642 37.2978 17.7913 36.0558 16.5517C34.8138 15.3122 33.339 14.3304 31.7162 13.6628C30.0935 12.9953 28.3547 12.6551 26.6 12.662ZM26.6 34.658C24.8876 34.658 23.2136 34.1502 21.7898 33.1989C20.366 32.2475 19.2563 30.8953 18.601 29.3133C17.9457 27.7312 17.7743 25.9904 18.1083 24.3109C18.4424 22.6314 19.267 21.0887 20.4778 19.8779C21.6887 18.667 23.2314 17.8424 24.9109 17.5084C26.5904 17.1743 28.3312 17.3457 29.9132 18.001C31.4953 18.6564 32.8475 19.7661 33.7988 21.1899C34.7502 22.6137 35.258 24.2876 35.258 26C35.258 27.137 35.034 28.2628 34.5989 29.3133C34.1638 30.3637 33.5261 31.3182 32.7221 32.1221C31.9181 32.9261 30.9637 33.5638 29.9132 33.9989C28.8628 34.4341 27.737 34.658 26.6 34.658Z" fill="white"/>
</svg>
