<svg width="58" height="58" viewBox="0 0 58 58" fill="none" xmlns="http://www.w3.org/2000/svg">
<path d="M13.892 19.8086C12.1885 22.6045 11.2826 25.8134 11.2725 29.0874C11.278 33.3282 12.7857 37.43 15.5281 40.6648C18.2706 43.8995 22.0703 46.0582 26.2531 46.7575V38.9042H22.4877H19.5293V32.9872H22.4877H26.2531V29.4909C20.7665 28.4877 16.1674 24.7573 13.9082 19.8086H13.892ZM44.5525 19.8086C42.2906 24.7573 37.6943 28.4957 32.2076 29.4909V32.9872H35.973H38.9314V38.9042H35.973H32.2076V46.7575C36.3904 46.0582 40.1902 43.8995 42.9326 40.6648C45.675 37.43 47.1827 33.3282 47.1883 29.0874C47.1773 25.8131 46.2705 22.6043 44.566 19.8086H44.5525Z" fill="#535353"/>
<path d="M4.20956 19.2701C2.9697 22.363 2.28656 25.7249 2.28656 29.2751C2.28656 43.0992 12.7488 54.5296 26.1964 56.0088V49.9843C16.0569 48.532 8.25728 39.818 8.25728 29.2751C8.25728 26.8303 8.67685 24.4877 9.44874 22.3092L4.20418 19.297L4.20956 19.2701ZM54.2345 19.2701L48.99 22.2823C49.7619 24.4635 50.1814 26.8007 50.1814 29.2482C50.1814 39.7911 42.3819 48.5051 32.2424 49.9574V55.9819C45.69 54.4946 56.1522 43.0992 56.1522 29.2482C56.1522 25.7249 55.469 22.3361 54.2292 19.2432L54.2345 19.2701Z" fill="#535353"/>
<path d="M29.2221 21.1527C33.6782 21.1527 37.2906 17.5403 37.2906 13.0842C37.2906 8.62804 33.6782 5.01562 29.2221 5.01562C24.7659 5.01562 21.1535 8.62804 21.1535 13.0842C21.1535 17.5403 24.7659 21.1527 29.2221 21.1527Z" stroke="#ED7A03" stroke-width="5.91693"/>
</svg>
