<svg width="62" height="54" viewBox="0 0 62 54" fill="none" xmlns="http://www.w3.org/2000/svg">
<g clip-path="url(#clip0_44_210)">
<path d="M30.9104 0.291992C23.4697 0.291992 16.8962 3.96772 12.9608 9.57408L17.1764 11.9714C20.2592 7.78708 25.2624 5.06274 30.9104 5.06274C36.5583 5.06274 41.5615 7.78708 44.6444 11.9714L48.86 9.57408C44.9246 3.96772 38.3511 0.291992 30.9104 0.291992Z" fill="#535353"/>
<path d="M10.6652 13.7812C9.66032 16.2485 9.10559 18.9408 9.10559 21.7603C9.10559 32.8048 17.5899 41.9099 28.4876 43.0975V38.285C20.2731 37.1259 13.9511 30.1671 13.9511 21.7603C13.9511 19.8095 14.2918 17.9372 14.9172 16.1964L10.6652 13.7812Z" fill="#535353"/>
<path d="M51.1555 13.7812L46.9036 16.1964C47.529 17.9372 47.8696 19.8095 47.8696 21.7603C47.8696 30.1671 41.5477 37.1259 33.3331 38.285V43.0975C44.2308 41.9099 52.7151 32.8048 52.7152 21.7603C52.7152 18.9408 52.1604 16.2485 51.1555 13.7812Z" fill="#535353"/>
<path d="M44.3519 26.843V16.5493H36.1372V8.46191H25.6828V16.5493H17.4686V26.843H25.6828V34.9309H36.1372V26.843H44.3519Z" fill="#ED7A03"/>
<path d="M57.1392 33.727V24.4555C57.1392 23.1411 58.2328 22.0693 59.5765 22.0693C60.9153 22.0693 62.0001 23.1411 62.0001 24.4555V37.1524C62.0001 38.9083 61.3583 40.6032 60.2067 41.9284L52.1646 50.3359C51.3681 51.075 51.171 51.7302 51.171 52.7237V54.2539H42.4191L42.408 50.6111C42.408 49.2239 42.2926 47.3707 44.0572 45.5522L54.2606 35.4644C54.6234 35.1191 55.1006 34.9304 55.6065 34.9304C56.6736 34.9304 57.5418 35.7831 57.5418 36.8326C57.5418 37.2861 57.3789 37.7271 57.0807 38.0719L52.159 43.2634C51.8415 43.6321 51.3013 44.3265 51.0334 45.1765C50.8876 45.6175 50.8462 46.0493 50.839 46.5414H52.4225C52.4291 46.1901 52.4551 45.9084 52.5407 45.6463C52.6953 45.1547 53.0046 44.7137 53.236 44.4304L58.2333 39.0328C58.8619 38.4085 59.2054 37.601 59.2054 36.7527C59.2049 35.4775 58.4266 34.3056 57.1392 33.727Z" fill="#535353"/>
<path d="M4.68142 33.727V24.4555C4.68142 23.1411 3.5873 22.0693 2.24298 22.0693C0.904185 22.0688 -0.179443 23.1406 -0.179443 24.4555V37.1524C-0.179443 38.9083 0.461786 40.6032 1.61335 41.9284L9.65551 50.3359C10.453 51.075 10.6486 51.7302 10.6486 52.7237V54.2539H19.4021L19.4126 50.6111C19.4126 49.2239 19.5275 47.3707 17.7645 45.5522L7.5606 35.4644C7.19553 35.1202 6.71889 34.9321 6.21463 34.9321C5.14702 34.9321 4.27768 35.7847 4.27768 36.8332C4.27768 37.2878 4.44061 37.7277 4.73886 38.0735L9.66158 43.264C9.97916 43.6327 10.5193 44.326 10.7877 45.1759C10.9319 45.6175 10.9728 46.0487 10.9822 46.5419H9.39758C9.3915 46.1896 9.36444 45.9079 9.27994 45.6458C9.12529 45.1542 8.816 44.7143 8.58348 44.432L3.58675 39.0322C2.95822 38.408 2.61524 37.6004 2.61524 36.7521C2.61579 35.4775 3.39289 34.3056 4.68142 33.727Z" fill="#535353"/>
</g>
<defs>
<clipPath id="clip0_44_210">
<rect width="62" height="54" fill="white"/>
</clipPath>
</defs>
</svg>
