<svg width="52" height="52" viewBox="0 0 52 52" fill="none" xmlns="http://www.w3.org/2000/svg">
<path d="M43.68 22.542H37.31V18.954C37.31 17.8832 37.4756 17.3772 37.6961 17.1149C37.8699 16.9081 38.3332 16.562 39.78 16.562H43.914H45.344V15.132V8.112V6.83004L44.0697 6.6905C42.0212 6.46618 39.9616 6.35909 37.9009 6.36972C36.3346 6.2663 34.7642 6.50259 33.2973 7.06269C31.8126 7.62954 30.47 8.51434 29.3636 9.65502C28.2571 10.7957 27.4136 12.1646 26.8922 13.6658C26.3791 15.1433 26.1902 16.7137 26.338 18.2701V22.62H21.008H19.578V24.05V31.85V33.28H21.008H26.338V50.57H2.86C2.48074 50.57 2.11701 50.4193 1.84884 50.1512C1.58066 49.883 1.43 49.5193 1.43 49.14V2.86C1.43 2.48074 1.58066 2.11702 1.84884 1.84884C2.11702 1.58066 2.48074 1.43 2.86 1.43H49.14C49.3278 1.43 49.5137 1.46699 49.6872 1.53885C49.8607 1.61072 50.0184 1.71605 50.1512 1.84884C50.2839 1.98162 50.3893 2.13926 50.4611 2.31276C50.533 2.48626 50.57 2.67222 50.57 2.86V49.14C50.57 49.3278 50.533 49.5137 50.4611 49.6872C50.3893 49.8607 50.2839 50.0184 50.1512 50.1512C50.0184 50.2839 49.8607 50.3893 49.6872 50.4611C49.5137 50.533 49.3278 50.57 49.14 50.57H37.31V33.202H42.666H43.9221L44.0841 31.9563L45.0981 24.1563L45.3079 22.542H43.68Z" stroke="white" stroke-width="2.86"/>
</svg>
