<svg width="57" height="56" viewBox="0 0 57 56" fill="none" xmlns="http://www.w3.org/2000/svg">
<path d="M17.0571 22.4286V41M39.3428 41V31.7143C39.3428 29.7441 38.5602 27.8546 37.167 26.4615C35.7739 25.0684 33.8844 24.2857 31.9142 24.2857C29.9441 24.2857 28.0546 25.0684 26.6614 26.4615C25.2683 27.8546 24.4857 29.7441 24.4857 31.7143V41V22.4286M15.2 16.8571H18.9142M5.91424 2H50.4857C51.4708 2 52.4155 2.39133 53.1121 3.08789C53.8086 3.78445 54.1999 4.7292 54.1999 5.71429V50.2857C54.1999 51.2708 53.8086 52.2155 53.1121 52.9121C52.4155 53.6087 51.4708 54 50.4857 54H5.91424C4.92915 54 3.9844 53.6087 3.28784 52.9121C2.59128 52.2155 2.19995 51.2708 2.19995 50.2857V5.71429C2.19995 4.7292 2.59128 3.78445 3.28784 3.08789C3.9844 2.39133 4.92915 2 5.91424 2Z" stroke="white" stroke-width="3.64"/>
</svg>
